<?xml version="1.0" encoding="utf-8"?>
<!-- Generator: Adobe Illustrator 18.0.0, SVG Export Plug-In . SVG Version: 6.00 Build 0)  -->
<!DOCTYPE svg PUBLIC "-//W3C//DTD SVG 1.1//EN" "http://www.w3.org/Graphics/SVG/1.1/DTD/svg11.dtd">
<svg version="1.1" id="Layer_1" xmlns="http://www.w3.org/2000/svg" xmlns:xlink="http://www.w3.org/1999/xlink" x="0px" y="0px"
	 viewBox="0 0 1612.8 1101.9" enable-background="new 0 0 1612.8 1101.9" xml:space="preserve">
<g transform="translate(0.000000,1650.000000) scale(0.100000,-0.100000)">
	<path fill="#F15523" stroke="#F15523" stroke-miterlimit="10" d="M2853.8,16489.9c-681-34-1309-164-1885-391
		c-291-115-644-303-883-472c-85-59-103-84-54-73c15,4,97,9,182,13c876,33,1487-605,1705-1782c61-332,83-584,95-1125
		c5-223,16-475,25-560c98-970,445-1742,1046-2325c511-495,1179-831,1944-977c103-20,152-23,345-23c224,0,605,28,624,46
		c10,9-6,13-119,29c-492,70-974,357-1315,785c-207,260-375,604-426,871c-19,104-15,268,11,374c51,210,207,377,422,451
		c144,49,404,65,553,34c226-48,445-183,704-435c177-172,290-301,610-696c366-451,466-565,671-769c331-332,598-513,902-615
		c207-69,255-75,543-74c276,1,416,16,657,70c594,132,1152,431,1625,867c105,96,194,194,185,204c-3,3-54-11-114-31
		c-265-87-508-128-869-146c-216-10-581,1-805,25c-938,102-1681,427-2234,980c-235,234-398,461-540,750c-137,277-193,476-181,640
		c20,294,154,470,411,541c99,27,320,30,435,6c226-46,352-127,744-471c191-169,320-259,483-340c245-122,514-181,822-181
		c201,0,326,23,566,102c206,69,640,261,629,279c-3,5-38,9-77,9c-188,0-497,41-716,95c-660,162-1210,495-1817,1100
		c-276,274-406,420-919,1030c-379,450-552,643-805,896c-266,267-398,384-617,548c-559,418-1159,656-1828,725
		C3397.8,16492.9,3066.8,16500.9,2853.8,16489.9z M2789.8,15952.9c-15-64-78-173-130-225c-145-145-371-167-592-59
		c-85,42-204,147-204,180c0,14,21,21,119,40c255,47,586,88,735,90l78,1L2789.8,15952.9z"/>
	<path fill="#F15523" stroke="#F15523" stroke-miterlimit="10" d="M6733.8,15042.9c0-16,210-224,345-343c353-309,686-531,1077-719
		c359-173,692-276,1071-333c195-29,598-32,762-5c194,31,388,87,536,154c72,33,103,61,54,49c-103-26-326-48-490-49
		c-202,0-304,14-456,63c-199,65-366,166-690,417c-374,289-502,374-724,483c-291,143-569,221-935,266
		C7121.8,15044.9,6733.8,15056.9,6733.8,15042.9z"/>
	<path fill="#F15523" stroke="#F15523" stroke-miterlimit="10" d="M7648.8,13879.9c-22-35,327-405,563-598
		c603-492,1307-779,2157-878c190-23,791-26,955-6c261,32,410,66,690,157c411,134,488,149,740,149c168,0,194-3,282-26
		c197-54,364-152,519-307c149-150,254-325,296-497c9-35,19-62,22-59c9,10,1,163-15,275c-102,722-493,1214-1089,1370
		c-187,49-243,55-495,55c-333,0-450-22-980-185c-398-122-546-157-809-190c-536-69-1170-7-1706,169c-363,118-734,306-1013,512
		C7671.8,13891.9,7659.8,13897.9,7648.8,13879.9z"/>
	<path fill="#F15523" stroke="#F15523" stroke-miterlimit="10" d="M11913.8,11408.9c-397-35-764-140-1135-326
		c-164-82-221-115-540-308c-388-235-554-312-762-354c-169-35-459-27-756,20c-70,11-135,19-144,17c-27-5,175-95,322-143
		c298-99,529-126,917-107c607,29,1026,126,1441,334c65,32,213,116,330,185c267,159,394,223,527,266c173,56,219,62,490,61
		c259-1,448-18,768-69c174-28,175-29,167-15c-16,26-246,167-375,229c-237,114-476,183-732,210
		C12320.8,11420.9,12054.8,11420.9,11913.8,11408.9z"/>
	<path fill="#F15523" stroke="#F15523" stroke-miterlimit="10" d="M13133.8,10619.9c-345-26-666-138-965-334
		c-224-147-410-314-752-674c-528-556-722-721-1005-857c-62-30-153-66-202-80c-50-14-92-28-95-30c-8-9,270-5,419,5
		c611,43,1078,155,1496,360c364,178,601,373,1004,825c278,312,390,409,549,476c202,85,501,75,828-27c36-11-80,84-153,126
		c-211,121-462,188-784,210C13314.8,10630.9,13275.8,10630.9,13133.8,10619.9z"/>
	<path fill="#F15523" stroke="#F15523" stroke-miterlimit="10" d="M14201.8,9929.9c-154-18-319-70-482-151c-103-51-156-85-156-98
		c0-5,39-11,88-15c118-9,266-40,363-76c172-63,294-149,531-377c202-194,272-249,403-313c157-77,268-100,480-100
		c217-1,413,42,608,132c94,44,112,68,50,68c-57,0-160,25-246,58c-137,53-232,127-487,377c-235,231-298,285-409,350
		C14742.8,9902.9,14455.8,9958.9,14201.8,9929.9z"/>
	<path fill="#F15523" stroke="#F15523" stroke-miterlimit="10" d="M3283.8,9108.9c0-16,172-245,297-395c329-394,708-737,1118-1011
		c541-361,1105-593,1685-694c122-22,164-24,435-24c336,1,427,8,952,80c444,61,595,75,820,75c437,0,862-82,1216-235
		c67-29-82,151-221,266c-182,151-392,264-648,348c-281,93-501,128-891,141c-379,13-623,49-832,122c-250,87-371,220-332,365
		c37,138,218,235,532,285c77,13,139,26,139,30c0,12-132,76-216,104c-156,52-342,73-491,55c-112-14-205-40-444-126
		c-373-135-566-170-934-169c-289,0-426,17-696,85c-447,112-963,350-1374,634C3284.8,9122.9,3283.8,9123.9,3283.8,9108.9z"/>
	<path fill="#F15523" stroke="#F15523" stroke-miterlimit="10" d="M13103.8,9034.9v-45h65h65v-195v-195h50h50v195v195h65h65v45v45
		h-180h-180V9034.9z"/>
	<path fill="#F15523" stroke="#F15523" stroke-miterlimit="10" d="M13572.8,9012.9c-1-37-4-146-8-241l-6-172h48h47v136
		c0,74,4,133,9,130c4-3,25-51,46-106l38-100h52h52l39,105c21,58,42,105,47,105c4,0,7-61,7-135v-135h49h50l-4,33c-3,17-7,126-11,240
		l-6,208l-51-3l-51-3l-57-150c-32-82-61-149-65-148c-5,1-33,68-64,150l-56,148l-52,3l-52,3L13572.8,9012.9z"/>
	<path fill="#F15523" stroke="#F15523" stroke-miterlimit="10" d="M8508.8,6765.9c395-95,779-340,1111-709c128-142,206-211,339-299
		c222-148,480-241,740-267c104-11,135-3,94,21c-202,123-254,175-413,415c-136,206-249,348-354,443c-306,277-723,402-1392,416l-225,4
		L8508.8,6765.9z"/>
</g>
</svg>
